<svg width="261" height="540" viewBox="0 0 261 540" fill="none" xmlns="http://www.w3.org/2000/svg">
<path fill-rule="evenodd" clip-rule="evenodd" d="M38.8586 0H222.141C242.887 0 259.705 16.7733 259.705 37.4641V118.316C260.459 118.582 261 119.3 261 120.144V173.756C261 174.6 260.459 175.317 259.705 175.584V502.536C259.705 523.227 242.887 540 222.141 540H38.8586C18.113 540 1.29529 523.227 1.29529 502.536V183.981C0.540657 183.715 0 182.997 0 182.153V151.148C0 150.305 0.540657 149.587 1.29529 149.321V137.473C0.540657 137.207 0 136.49 0 135.646V104.641C0 103.797 0.540657 103.08 1.29529 102.814V87.0907C0.540657 86.8247 0 86.1069 0 85.2632V69.1148C0 68.2711 0.540657 67.5533 1.29529 67.2873V37.4641C1.29529 16.7733 18.113 0 38.8586 0Z" fill="black"/>
</svg>
